<?xml version="1.0" encoding="UTF-8"?>
<svg width="423px" height="494px" viewBox="0 0 423 494" version="1.1" xmlns="http://www.w3.org/2000/svg" xmlns:xlink="http://www.w3.org/1999/xlink">
    <!-- Generator: Sketch 45.1 (43504) - http://www.bohemiancoding.com/sketch -->
    <title>Untitled</title>
    <desc>Created with Sketch.</desc>
    <defs></defs>
    <g id="Page-1" stroke="none" stroke-width="1" fill="none" fill-rule="evenodd">
        <g id="how-it-works-step2" fill-rule="nonzero">
            <g id="Shape" fill="#000000">
                <g id="path-2-link">
                    <path d="M200.411481,4.40449693 C200.411481,4.40449693 184.328549,17.2880028 165.897843,32.0365489 C132.090687,59.0854454 93.7733252,79.9469046 52.6881779,93.6307957 C30.9088215,100.890288 12.0505274,107.154011 12.0505274,107.154011 C4.85466707,109.554742 0.00306232225,116.291587 0.00704719509,123.877357 L0.00704719509,199.580088 C0.00704719509,330.730151 86.0171823,447.976097 209.251483,492.796258 C211.170335,493.496172 213.196272,493.85712 215.23878,493.862974 C217.350935,493.857102 219.376872,493.496137 221.295721,492.796205 C344.533545,447.984853 422.832287,330.737145 422.832287,199.580036 L422.832287,123.877304 C422.836271,116.291534 417.984667,109.554689 410.788806,107.153958 C410.788806,107.153958 391.92875,100.890235 370.151156,93.6307428 C329.066008,79.9472041 290.748647,59.0853925 256.94149,32.036496 C238.511313,17.2886547 222.427852,4.40444407 222.427852,4.40444407 C219.182359,1.80866505 215.123789,0.443619188 210.969289,0.550509262 C207.127677,0.646911929 203.417337,2.00051993 200.411481,4.40449693 Z" id="path-2"></path>
                </g>
            </g>
            <path d="M372.827772,207.804825 C290.19486,125.171914 156.894031,123.131595 71.8807468,202.023922 L65.0796844,195.222859 C60.9990468,191.142222 54.5380371,191.142222 50.4573995,195.222859 C46.3767619,199.303497 46.3767619,205.764506 50.4573995,209.845144 L198.04046,357.428205 C197.360354,359.808577 196.680248,362.188949 196.680248,364.569321 C196.680248,376.131128 206.201736,385.652615 217.763542,385.652615 C229.325349,385.652615 238.846836,376.131128 238.846836,364.569321 C238.846836,353.007514 229.325349,343.486026 217.763542,343.486026 C216.063277,343.486026 214.703064,343.826079 213.342851,344.166132 L175.596954,306.420235 C203.48131,284.656834 243.947634,286.697153 269.791672,312.201138 C273.872309,316.281776 280.333319,316.281776 284.413957,312.201138 C288.494594,308.1205 288.494594,301.65949 284.413957,297.578853 C250.748696,263.913593 197.360354,261.873274 161.314721,291.457897 L131.730099,261.873274 C183.418176,215.626047 263.330662,217.326313 312.97842,266.974071 C317.059058,271.054709 323.520067,271.054709 327.600705,266.974071 C331.681343,262.893433 331.681343,256.432424 327.600705,252.351786 C270.131725,194.882806 177.297219,192.842487 117.447867,247.250989 L86.8430849,216.646207 C164.035147,145.915154 284.073904,147.61542 358.885593,222.42711 C360.925912,224.467429 363.646338,225.487588 366.026709,225.487588 C368.747134,225.487588 371.127506,224.467429 373.167825,222.42711 C376.908409,218.346473 376.908409,211.885463 372.827772,207.804825 Z" id="Shape" fill="#FBFBFB"></path>
        </g>
    </g>
</svg>